<svg xmlns="http://www.w3.org/2000/svg" width="526.959" height="139.768" viewBox="0 0 526.959 139.768">
  <g id="Group_331" data-name="Group 331" transform="translate(-1223.154 -800.543)">
    <g id="Group_7" data-name="Group 7" transform="translate(1223.154 800.543)">
      <g id="Group_6" data-name="Group 6">
        <path id="Path_4" data-name="Path 4" d="M1281.486,894.042h12.431q3.329,0,3.333-3.327v-7.236a2.985,2.985,0,0,1,3.327-3.327h9.547q3.331,0,3.326,3.327v7.236a2.987,2.987,0,0,0,3.333,3.327h12.431c2.22,0,3.327-1.332,3.327-3.77V845.637c0-13.988-2.219-28.857-27.188-28.857s-27.194,14.869-27.194,28.857v44.634C1278.159,892.71,1279.378,894.042,1281.486,894.042Zm15.764-48.4c0-5.328.775-7.992,8.1-7.992s8.1,2.664,8.1,7.992v15.425h-16.2Z" transform="translate(-1219.208 -799.378)" fill="#371a7f"/>
        <path id="Path_5" data-name="Path 5" d="M1347.875,893.908h15.645a3.426,3.426,0,0,0,3.665-2.883l6.1-24.881c.225-1.107,1.112-1.107,1.332,0l6.109,24.881a3.419,3.419,0,0,0,3.658,2.883h15.65a3.359,3.359,0,0,0,3.664-2.883l12.466-68.72c.444-2.332-.669-3.664-3-3.664h-13.206c-2,0-3.445,1-3.664,2.889l-5.142,46.277c-.225,1.112-1.114,1.112-1.332,0l-7.434-45.971a3.359,3.359,0,0,0-3.664-2.889h-9.543a3.354,3.354,0,0,0-3.663,2.889l-7.441,45.971c-.219,1.112-1.107,1.112-1.326,0L1351.4,821.53c-.224-1.888-1.662-2.889-3.664-2.889h-13.206c-2.332,0-3.438,1.332-3,3.664l12.686,68.72A3.355,3.355,0,0,0,1347.875,893.908Z" transform="translate(-1215.388 -799.245)" fill="#371a7f"/>
        <path id="Path_6" data-name="Path 6" d="M1555.756,817.159c-26.3,0-27.856,19.641-27.856,26.968v25.32c0,7.328,1.557,26.974,27.856,26.974s27.863-19.646,27.863-26.974v-25.32C1583.619,836.8,1582.063,817.159,1555.756,817.159Zm8.767,46.41c0,8.542-.551,13.762-8.767,13.762s-8.766-5.22-8.766-13.762V850.011c0-8.547.556-13.762,8.766-13.762s8.767,5.215,8.767,13.762Z" transform="translate(-1201.295 -799.351)" fill="#371a7f"/>
        <path id="Path_7" data-name="Path 7" d="M1643.572,819.02h-56.826a2.989,2.989,0,0,0-3.327,3.333v12.43a3.034,3.034,0,0,0,3.327,3.327h15.539q3.329,0,3.332,3.333l-.294,49.517a3.035,3.035,0,0,0,3.327,3.328h12.431a2.985,2.985,0,0,0,3.326-3.328l.294-49.517a2.994,2.994,0,0,1,3.333-3.333h15.538a2.984,2.984,0,0,0,3.327-3.327v-12.43Q1646.9,819.022,1643.572,819.02Z" transform="translate(-1197.313 -799.218)" fill="#371a7f"/>
        <path id="Path_8" data-name="Path 8" d="M1499.344,817.159c-26.305,0-27.856,19.641-27.856,26.968v25.32c0,7.328,1.551,26.974,27.856,26.974s27.858-19.646,27.858-26.974V846.552C1527.2,839.224,1525.65,817.159,1499.344,817.159Zm8.773,46.41c0,8.542-.557,13.762-8.773,13.762s-8.767-5.22-8.767-13.762V850.011c0-8.547.557-13.762,8.767-13.762s8.773,5.215,8.773,13.762Z" transform="translate(-1205.341 -799.351)" fill="#371a7f"/>
        <path id="Path_9" data-name="Path 9" d="M1715.038,864.371c-3.927,4.719-8.919,7.08-15.423,8.49,0,0,.807-1.17,1.028-1.566.324-.584-.364-.793-.728-.609a39.567,39.567,0,0,1-14.715,3.91,44.088,44.088,0,0,1-7.1-.269.8.8,0,0,1-.58-1.187l28.664-50.177c1.315-2.3.328-3.943-2.3-3.943h-52.794a2.955,2.955,0,0,0-3.289,3.289v12.268a3.283,3.283,0,0,0,3.284,3.283h20.926c.877,0,1.2.55.765,1.315L1644.1,890.344c-1.319,2.3-.332,3.852,2.3,3.852h20.393c6.132,0,13.061.171,19.79-.574,7.991-.734,18.3-2.912,25.2-7.907.46-.333.716-.908-.281-.714-.774.15-1.776.339-2.9.537a34.307,34.307,0,0,0,10.633-10.508c.2-.307.215-.755-.392-.456-.663.327-1.624.793-2.732,1.313a30.394,30.394,0,0,0,3.77-9.116A2.772,2.772,0,0,0,1715.038,864.371Z" transform="translate(-1193.002 -799.218)" fill="#371a7f"/>
        <g id="Group_5" data-name="Group 5" transform="translate(205.76 2.424)">
          <path id="Path_10" data-name="Path 10" d="M1443.239,859.892a1.946,1.946,0,0,0-3.432-.118l-4.451,6.014a1.84,1.84,0,0,0-.272,1.628,2.925,2.925,0,0,0,3.9,1.828l1.551-.594a1.739,1.739,0,0,1,1.357.047l1.508.7a2.924,2.924,0,0,0,4.019-1.555,1.835,1.835,0,0,0-.158-1.642Z" transform="translate(-1413.718 -798.788)" fill="#371a7f"/>
          <path id="Path_11" data-name="Path 11" d="M1433.792,892.56l-.179-18.365a32.892,32.892,0,0,0-1.368-9.1,3.117,3.117,0,0,1-.1-.865c.079-2.293,1.51-4.143,3.3-4.4a1.311,1.311,0,0,1,1.553.925c.024,0,.03-.054.027-.139a4.663,4.663,0,0,1,.4-2.146,3.952,3.952,0,0,1,3.567-2.613,3.408,3.408,0,0,1,2.481,1.322h0a3.206,3.206,0,0,1,.518,1.6c.042.042.058-.259.188-.592a1.456,1.456,0,0,1,.62-.714,2.7,2.7,0,0,1,1.478-.405,3.441,3.441,0,0,1,2.877,2.133.987.987,0,0,0,.091.2h0c.037.086.074.172.107.261a2.645,2.645,0,0,1,.141,1.161.673.673,0,0,0,.01.194c.078.4.1-.478.773-.674a1.76,1.76,0,0,1,.377-.031c2.026.071,3.6,2.166,3.51,4.681a5.241,5.241,0,0,1-.287,1.548c-.788,2.238-1.737,4.414-1.819,6.785l.133,19.024a3,3,0,0,0,2.992,3.1h12.362a3,3,0,0,0,3.341-3.342V806.152a3.347,3.347,0,0,0-3.347-3.347h-12.2a3,3,0,0,0-2.994,3.023l.191,17.291a32.9,32.9,0,0,0,1.37,9.1,3.162,3.162,0,0,1,.1.864c-.079,2.295-1.511,4.143-3.3,4.4a1.311,1.311,0,0,1-1.554-.925c-.025,0-.03.054-.026.139a4.674,4.674,0,0,1-.4,2.146,3.95,3.95,0,0,1-3.567,2.613,3.4,3.4,0,0,1-2.48-1.322h0a3.215,3.215,0,0,1-.519-1.6c-.042-.042-.058.259-.188.592a1.448,1.448,0,0,1-.62.714,2.685,2.685,0,0,1-1.477.405,3.438,3.438,0,0,1-2.877-2.133,1.113,1.113,0,0,0-.092-.2h0c-.038-.086-.073-.172-.106-.261a2.649,2.649,0,0,1-.142-1.16.678.678,0,0,0-.01-.195c-.078-.4-.1.478-.774.674a1.75,1.75,0,0,1-.376.031c-2.027-.07-3.6-2.166-3.51-4.68a5.2,5.2,0,0,1,.287-1.548c.787-2.239,1.737-4.416,1.819-6.786l-.162-18.21a3,3,0,0,0-2.994-2.97h-12.453a3.341,3.341,0,0,0-3.341,3.342v85.962a3.341,3.341,0,0,0,3.341,3.342H1430.8A2.994,2.994,0,0,0,1433.792,892.56Z" transform="translate(-1415.143 -802.805)" fill="#371a7f"/>
        </g>
        <path id="Path_12" data-name="Path 12" d="M1250.9,800.543h-24.417c-1.957.1-3.051.979-3.284,4.364h-.049v87.852a2.289,2.289,0,0,0,2.312,2.315c4.379-.05,13.451.133,13.451.133a3.333,3.333,0,0,0,3.333-3.333V862.241a2.989,2.989,0,0,1,3.327-3.333h5.328c19.758,0,27.75-12.314,27.75-30.516S1270.663,800.543,1250.9,800.543Zm.663,39.276h-9.041V819.633h9.041c5.326,0,7.991,1.881,7.991,8.759S1256.894,839.819,1251.568,839.819Z" transform="translate(-1223.154 -800.543)" fill="#371a7f"/>
      </g>
    </g>
    <g id="Group_8" data-name="Group 8" transform="translate(1332.752 915.376)">
      <path id="Path_13" data-name="Path 13" d="M1331.918,927v5.251h-6.5V907.957h9.217a10.216,10.216,0,0,1,7.5,2.679,10,10,0,0,1,0,13.7,10.256,10.256,0,0,1-7.5,2.662Zm0-5.5h2.394q4,0,4-4,0-4.037-4-4.036h-2.394Z" transform="translate(-1325.417 -907.672)" fill="#ef4a23"/>
      <path id="Path_14" data-name="Path 14" d="M1357.017,932.25V907.957h17.041v5.466h-10.54v5.645h8.788v5.18h-8.788v2.537h11.039v5.466Z" transform="translate(-1323.15 -907.672)" fill="#ef4a23"/>
      <path id="Path_15" data-name="Path 15" d="M1392.213,932.25V913.423h-6.43v-5.466h19.363v5.466h-6.43V932.25Z" transform="translate(-1321.087 -907.672)" fill="#ef4a23"/>
      <path id="Path_16" data-name="Path 16" d="M1451.024,925.355l4.322,6.894h-7.038l-3.393-5.573h-2.43v5.573h-6.5V907.957h9.217a10.216,10.216,0,0,1,7.5,2.679,9.223,9.223,0,0,1,2.715,6.859A8.31,8.31,0,0,1,1451.024,925.355Zm-8.538-3.858h2.393q4,0,4-4,0-4.037-4-4.036h-2.393Z" transform="translate(-1317.486 -907.672)" fill="#ef4a23"/>
      <path id="Path_17" data-name="Path 17" d="M1467.617,932.25V907.957h17.041v5.466h-10.538v5.645h8.787v5.18h-8.787v2.537h11.038v5.466Z" transform="translate(-1315.217 -907.672)" fill="#ef4a23"/>
      <path id="Path_18" data-name="Path 18" d="M1505.824,932.626q-6.681,0-10.074-4.5l4.715-3.537a6.369,6.369,0,0,0,5.074,2.644q3.07,0,3.072-1.929a1.458,1.458,0,0,0-.554-1.2,6.164,6.164,0,0,0-1.84-.876l-2.857-.965q-6.038-2-6.037-7.323a6.43,6.43,0,0,1,2.411-5.34,9.164,9.164,0,0,1,5.876-1.911q5.323,0,8.073,3.214l-3.715,3.895a5.357,5.357,0,0,0-4-1.751,2.838,2.838,0,0,0-1.75.465,1.456,1.456,0,0,0-.606,1.214,1.414,1.414,0,0,0,.409,1.072,3.721,3.721,0,0,0,1.3.715l3.216,1.072a11.067,11.067,0,0,1,5.019,2.929,6.622,6.622,0,0,1,1.482,4.429,7.2,7.2,0,0,1-2.286,5.609Q1510.468,932.626,1505.824,932.626Z" transform="translate(-1313.199 -907.691)" fill="#ef4a23"/>
      <path id="Path_19" data-name="Path 19" d="M1548.488,929.054a13.733,13.733,0,0,1-18.4,0,12.285,12.285,0,0,1,0-17.844,13.785,13.785,0,0,1,18.4,0,12.285,12.285,0,0,1,0,17.844Zm-13.879-4.037a6.64,6.64,0,0,0,9.359,0,7.816,7.816,0,0,0,0-9.771,6.685,6.685,0,0,0-9.359,0,7.815,7.815,0,0,0,0,9.771Z" transform="translate(-1311.011 -907.691)" fill="#ef4a23"/>
      <path id="Path_20" data-name="Path 20" d="M1579.123,925.355l4.323,6.894h-7.038l-3.393-5.573h-2.429v5.573h-6.5V907.957h9.217a10.214,10.214,0,0,1,7.5,2.679,9.223,9.223,0,0,1,2.716,6.859A8.309,8.309,0,0,1,1579.123,925.355Zm-8.538-3.858h2.394q4,0,4-4,0-4.037-4-4.036h-2.394Z" transform="translate(-1308.298 -907.672)" fill="#ef4a23"/>
      <path id="Path_21" data-name="Path 21" d="M1600.947,932.25V913.423h-6.43v-5.466h19.362v5.466h-6.43V932.25Z" transform="translate(-1306.115 -907.672)" fill="#ef4a23"/>
    </g>
  </g>
</svg>
